<svg width="73" height="71" viewBox="0 0 73 71" fill="none" xmlns="http://www.w3.org/2000/svg">
<path d="M7.90015 15.9342C7.90015 40.6857 27.8788 60.7506 52.5239 60.7506C53.6352 60.7506 54.7369 60.7101 55.8292 60.6292C57.0824 60.5372 57.7086 60.4913 58.2786 60.1616C58.7741 59.8633 59.1751 59.4298 59.4351 58.9117C59.7209 58.3167 59.7209 57.6227 59.7209 56.234V48.0864C59.7209 46.9189 59.7209 46.3351 59.5292 45.8355C59.3607 45.3932 59.0863 44.9994 58.7303 44.6888C58.3278 44.3375 57.7803 44.138 56.6886 43.7346L47.4567 40.3665C46.1853 39.9024 45.5497 39.6726 44.9468 39.7099C44.4152 39.7446 43.9036 39.9268 43.4691 40.2364C42.9759 40.5833 42.6287 41.1688 41.9326 42.3338L39.5687 46.2909C31.9145 42.7919 25.779 36.63 22.2951 28.9427L26.2352 26.5747C27.3943 25.8756 27.9747 25.5269 28.3236 25.0316C28.6318 24.5951 28.8133 24.0813 28.8478 23.5474C28.8876 22.9402 28.6561 22.3036 28.194 21.0267L24.8369 11.7515C24.4396 10.6543 24.241 10.1035 23.8869 9.70097C23.5776 9.34343 23.1855 9.06787 22.7451 8.89862C22.2519 8.70605 21.6707 8.70605 20.5099 8.70605H12.3973C11.0154 8.70605 10.3245 8.70605 9.73115 8.99317C9.21523 9.25427 8.78367 9.65701 8.48659 10.1546C8.15839 10.7271 8.11261 11.356 8.02106 12.6146C7.94045 13.7098 7.90015 14.8164 7.90015 15.9342Z" stroke="#00FF66" stroke-width="5" stroke-linecap="round" stroke-linejoin="round"/>
</svg>
