<svg width="25" height="25" viewBox="0 0 25 25" fill="none" xmlns="http://www.w3.org/2000/svg">
<g opacity="0.4" clip-path="url(#clip0_12_1326)">
<path d="M1.06494 4.23885C1.06494 6.82538 1.57439 9.38658 2.56422 11.7762C3.55404 14.1659 5.00484 16.3371 6.8338 18.1661C10.5275 21.8598 15.5373 23.935 20.761 23.935C21.251 23.935 21.7409 23.935 22.1811 23.8853C22.5538 23.8953 22.9243 23.8251 23.2674 23.6794C23.486 23.5459 23.6631 23.3541 23.7787 23.1255C23.9003 22.7477 23.9414 22.3486 23.8994 21.954V18.4039C23.9288 18.0701 23.9 17.7337 23.8142 17.4098C23.7421 17.2154 23.6225 17.0421 23.4662 16.9057C23.1904 16.7181 22.8858 16.5766 22.5645 16.4868L18.489 15.0099C18.1414 14.8439 17.7656 14.7451 17.3813 14.7188C17.1461 14.7352 16.9201 14.8163 16.7281 14.9531C16.4302 15.2085 16.1885 15.5227 16.0181 15.8762L14.9743 17.6086C11.6286 16.0486 8.95855 13.3332 7.45517 9.96165L9.19473 8.91791C9.54638 8.74468 9.86013 8.50333 10.1178 8.20789C10.2524 8.01534 10.3311 7.78922 10.345 7.55467C10.3221 7.17067 10.2257 6.79465 10.061 6.44703L8.57701 2.37148C8.48923 2.05163 8.34756 1.74909 8.1581 1.47685C8.02407 1.31638 7.85023 1.19395 7.65398 1.12184C7.33253 1.03584 6.99847 1.007 6.66704 1.03663H3.11691C2.71941 0.993189 2.31722 1.0368 1.93828 1.16444C1.70673 1.27566 1.51382 1.45373 1.38445 1.67566C1.23774 2.01602 1.16745 2.38442 1.17855 2.75489C1.06494 3.26611 1.06494 3.74893 1.06494 4.23885Z" stroke="black" stroke-width="3" stroke-linecap="round" stroke-linejoin="round"/>
</g>
<defs>
<clipPath id="clip0_12_1326">
<rect width="25" height="25" fill="white"/>
</clipPath>
</defs>
</svg>
