<svg width="62" height="46" viewBox="0 0 62 46" fill="none" xmlns="http://www.w3.org/2000/svg">
<g clip-path="url(#clip0_6_977)">
<path d="M61.5517 28.303C61.2611 26.1965 60.8494 23.9553 60.3408 21.6161L58.3185 22.057L56.2963 22.5101C56.7928 24.7636 57.1803 26.9068 57.4467 28.8663C57.7015 30.6391 57.8391 32.4271 57.8584 34.2183C57.8676 35.2391 57.7947 36.259 57.6404 37.2678C57.5468 37.8675 57.4009 38.4577 57.2045 39.0314C57.0838 39.3746 56.9339 39.7065 56.7564 40.0234C56.5441 40.4058 56.2699 40.7494 55.9451 41.0399C55.6306 41.3063 55.269 41.51 54.8795 41.64C54.5646 41.7533 54.2328 41.8112 53.8986 41.8115C53.4715 41.8076 53.0488 41.7246 52.6513 41.5666C52.2769 41.4149 51.9163 41.2305 51.5736 41.0154C50.9326 40.5924 50.3361 40.1041 49.7935 39.558C49.1306 38.8987 48.5079 38.1994 47.9287 37.4638C47.0679 36.3516 46.0617 35.3627 44.9377 34.5245C44.0911 33.9059 43.1769 33.3881 42.2131 32.9814C40.7357 32.3568 39.1131 31.9526 37.2724 31.6954C35.4318 31.4382 33.3732 31.3403 30.9877 31.3403C29.0911 31.3216 27.1949 31.4115 25.3084 31.6097C24.1156 31.7384 22.9338 31.9553 21.7724 32.2588C20.9785 32.469 20.2013 32.7391 19.4474 33.0671C18.364 33.5393 17.3462 34.1528 16.4201 34.8919C15.4931 35.6437 14.6523 36.4982 13.9135 37.4393C13.3564 38.1374 12.8115 38.7742 12.2666 39.3376C11.4553 40.1704 10.6681 40.8195 9.95369 41.2236C9.63581 41.4077 9.29873 41.5556 8.94861 41.6645C8.3103 41.8596 7.62695 41.8425 6.999 41.6155C6.79923 41.544 6.60826 41.4495 6.42986 41.3339C6.08689 41.0932 5.79122 40.79 5.55799 40.4398C5.32528 40.0862 5.13043 39.7085 4.97674 39.3131C4.67239 38.5211 4.46499 37.6944 4.35916 36.8514C4.20595 35.7644 4.13309 34.6673 4.14119 33.5692C4.15263 31.8526 4.27398 30.1385 4.50447 28.4377C4.74666 26.5761 5.09783 24.5799 5.55799 22.4979C6.15135 19.8403 6.79314 17.4398 7.5197 15.3333C8.01132 13.8808 8.59375 12.4614 9.26346 11.0836C10.1959 9.2098 11.1969 7.74015 12.2666 6.67465C12.7623 6.16991 13.3151 5.72596 13.9135 5.35197C14.4646 5.00718 15.0593 4.73939 15.6814 4.55591C16.6149 4.28719 17.5808 4.15116 18.5513 4.15176H18.6119C19.31 4.16226 20.0046 4.25265 20.6826 4.42119C21.2396 4.55591 21.8572 4.72737 22.5474 4.92332C23.5767 5.21725 24.7635 5.54792 26.156 5.80511C27.7621 6.10126 29.3915 6.24884 31.024 6.24601C32.4963 6.24676 33.9662 6.12799 35.4197 5.89084C37.3451 5.57242 38.883 5.09478 40.1545 4.73962C40.7963 4.55591 41.3654 4.40895 41.8982 4.31097C42.401 4.21137 42.9117 4.15808 43.424 4.15176H43.4846C44.4103 4.154 45.3313 4.28589 46.2213 4.54366H46.2092C46.7591 4.70797 47.2876 4.93821 47.7834 5.2295C48.7511 5.80957 49.6115 6.55552 50.3263 7.43397C50.9919 8.24103 51.5798 9.11042 52.0822 10.0304C53.0187 11.7508 53.7969 13.5546 54.4072 15.4191C55.1746 17.7367 55.8134 20.0959 56.3205 22.4856L58.3185 22.057L60.3408 21.6038C59.7939 19.0257 59.0985 16.4821 58.258 13.9862C57.7098 12.3575 57.0586 10.7662 56.3084 9.22204C55.2306 7.05431 53.9834 5.20501 52.506 3.72311C51.7798 2.99419 50.9757 2.34929 50.1084 1.80032C49.2501 1.2671 48.3258 0.851171 47.3596 0.563366C46.0964 0.192195 44.7879 0.00254857 43.4724 0H43.4119C42.4036 0.00763992 41.3997 0.135067 40.4209 0.37966C39.7185 0.538872 39.0525 0.734825 38.3744 0.930778C37.3572 1.22471 36.3279 1.50639 35.1412 1.72684C33.7789 1.97782 32.3966 2.10081 31.0119 2.09425C29.763 2.09534 28.5159 1.99706 27.2822 1.80032C25.6595 1.53088 24.3275 1.12673 22.9713 0.747072C22.2931 0.563366 21.615 0.379659 20.8885 0.244941C20.1343 0.0959315 19.3681 0.0180334 18.5998 0.0122478H18.5392C17.1847 0.0114566 15.8362 0.196859 14.531 0.563366H14.5068C13.6456 0.821192 12.8166 1.17872 12.0365 1.62886C10.6567 2.4554 9.42779 3.51596 8.40369 4.76411C7.57566 5.77088 6.84191 6.85327 6.21189 7.99734C5.20681 9.78541 4.34705 11.8184 3.57205 14.0841C2.75248 16.5462 2.06926 19.0526 1.52556 21.5916C1.04119 23.7838 0.665799 25.9026 0.411502 27.9111C0.14499 29.7934 0.00742231 31.6922 -0.000216654 33.5937C-0.0104495 34.9177 0.0826783 36.2404 0.278299 37.5495C0.410274 38.4382 0.612751 39.3146 0.883768 40.1704C1.08394 40.7711 1.32676 41.3564 1.61033 41.9217C2.03286 42.7482 2.5942 43.4941 3.26931 44.1262C3.95404 44.7646 4.76219 45.2525 5.64275 45.5591C6.40884 45.8337 7.21553 45.9745 8.0283 45.9755C8.95678 45.97 9.8763 45.7915 10.7408 45.4489C11.3752 45.2037 11.9804 44.8874 12.5451 44.5059C13.4102 43.9253 14.2173 43.2608 14.9549 42.5218C15.7274 41.7441 16.4551 40.9222 17.1345 40.0602C17.7693 39.244 18.5107 38.5189 19.3385 37.9047C19.9395 37.4686 20.59 37.1068 21.276 36.8269C22.3537 36.3738 23.6373 36.0431 25.2357 35.8349C26.8342 35.6267 28.7353 35.5165 30.9998 35.5165C32.7346 35.4991 34.469 35.5809 36.1947 35.7614C37.1719 35.8643 38.1395 36.0445 39.0888 36.3003C39.673 36.4537 40.244 36.6543 40.7963 36.9004C41.5429 37.2305 42.2432 37.6588 42.8791 38.1741C43.5606 38.7356 44.178 39.3723 44.7197 40.0724C45.3284 40.8512 45.9793 41.5953 46.6693 42.3014C47.6865 43.3301 48.7642 44.2242 49.9631 44.8978C50.5594 45.2378 51.1935 45.5051 51.8521 45.6938C53.2821 46.1295 54.8114 46.0996 56.2236 45.6081C56.746 45.4314 57.2459 45.193 57.7131 44.8978C58.5185 44.3966 59.2214 43.7439 59.7838 42.975C60.2091 42.4049 60.563 41.7837 60.8373 41.1257C61.2676 40.094 61.5686 39.0119 61.7334 37.9047C61.9177 36.689 62.0068 35.4605 61.9998 34.2306C61.9847 32.2467 61.835 30.2661 61.5517 28.303Z" fill="#00FF66"/>
<path d="M35.6501 21.4323C37.0746 21.4323 38.2294 20.2644 38.2294 18.8237C38.2294 17.383 37.0746 16.2151 35.6501 16.2151C34.2256 16.2151 33.0708 17.383 33.0708 18.8237C33.0708 20.2644 34.2256 21.4323 35.6501 21.4323Z" fill="#00FF66"/>
<path d="M41.3293 21.959C40.8196 21.959 40.3215 22.1117 39.8976 22.3978C39.4737 22.6839 39.1431 23.0906 38.9475 23.5665C38.7519 24.0425 38.7001 24.5664 38.7987 25.072C38.8972 25.5777 39.1417 26.0426 39.5012 26.4079C39.8607 26.7732 40.3192 27.0226 40.8187 27.1246C41.3182 27.2266 41.8365 27.1767 42.308 26.9812C42.7795 26.7856 43.1831 26.4532 43.468 26.0258C43.7529 25.5984 43.9062 25.0953 43.9086 24.5799V24.5676C43.906 23.8766 43.6335 23.2145 43.1503 22.7259C42.6671 22.2372 42.0126 21.9616 41.3293 21.959Z" fill="#00FF66"/>
<path d="M41.3293 15.6762C42.7538 15.6762 43.9086 14.5083 43.9086 13.0676C43.9086 11.6269 42.7538 10.459 41.3293 10.459C39.9048 10.459 38.75 11.6269 38.75 13.0676C38.75 14.5083 39.9048 15.6762 41.3293 15.6762Z" fill="#00FF66"/>
<path d="M47.0207 21.4323C48.4452 21.4323 49.6 20.2644 49.6 18.8237C49.6 17.383 48.4452 16.2151 47.0207 16.2151C45.5962 16.2151 44.4414 17.383 44.4414 18.8237C44.4414 20.2644 45.5962 21.4323 47.0207 21.4323Z" fill="#00FF66"/>
<path d="M24.8 16.7295H20.6708V12.5532C20.6708 12.2782 20.6172 12.0059 20.5131 11.7518C20.4091 11.4977 20.2565 11.2668 20.0643 11.0724C19.872 10.8779 19.6437 10.7236 19.3925 10.6184C19.1412 10.5132 18.872 10.459 18.6 10.459C18.3281 10.459 18.0589 10.5132 17.8076 10.6184C17.5564 10.7236 17.3281 10.8779 17.1358 11.0724C16.9436 11.2668 16.791 11.4977 16.687 11.7518C16.5829 12.0059 16.5293 12.2782 16.5293 12.5532V16.7295H12.4C11.8509 16.7295 11.3242 16.9501 10.9358 17.3429C10.5475 17.7356 10.3293 18.2683 10.3293 18.8237C10.3293 19.3792 10.5475 19.9118 10.9358 20.3046C11.3242 20.6973 11.8509 20.918 12.4 20.918H16.5293V25.0942C16.5293 25.6497 16.7475 26.1823 17.1358 26.5751C17.5242 26.9678 18.0509 27.1885 18.6 27.1885C19.1492 27.1885 19.6759 26.9678 20.0643 26.5751C20.4526 26.1823 20.6708 25.6497 20.6708 25.0942V20.918H24.8C25.3492 20.918 25.8759 20.6973 26.2643 20.3046C26.6526 19.9118 26.8708 19.3792 26.8708 18.8237C26.8708 18.2683 26.6526 17.7356 26.2643 17.3429C25.8759 16.9501 25.3492 16.7295 24.8 16.7295Z" fill="#00FF66"/>
</g>
<defs>
<clipPath id="clip0_6_977">
<rect width="62" height="46" fill="white"/>
</clipPath>
</defs>
</svg>
