<svg width="72" height="47" viewBox="0 0 72 47" fill="none" xmlns="http://www.w3.org/2000/svg">
<g clip-path="url(#clip0_12_1640)">
<path d="M7.1406 0H64.8594C66.7525 0.00190026 68.5675 0.752562 69.9061 2.08727C71.2448 3.42199 71.9979 5.23173 72 7.11942V39.8761C71.9979 41.7638 71.2448 43.5735 69.9061 44.9082C68.5675 46.243 66.7525 46.9936 64.8594 46.9955H7.1406C5.24816 46.9936 3.4337 46.2434 2.09512 44.9095C0.756546 43.5756 0.00309753 41.7668 0 39.8797V7.12301C0.00119019 5.2347 0.753799 3.42403 2.09258 2.08854C3.43137 0.753056 5.24691 0.00190173 7.1406 0ZM4.7601 7.11942V39.8761C4.76555 40.2363 4.85522 40.5903 5.022 40.91L21.852 24.1278L4.7646 7.09429C4.7646 7.10326 4.7601 7.11044 4.7601 7.11942ZM67.2399 39.8761V7.11942C67.2399 7.11044 67.2345 7.10416 67.2345 7.09429L50.1507 24.1278L66.9807 40.91C67.1457 40.5908 67.2344 40.2378 67.2399 39.8788V39.8761ZM35.2656 30.7958C35.4633 30.9845 35.7264 31.0898 36 31.0898C36.2736 31.0898 36.5367 30.9845 36.7344 30.7958L62.8569 4.74299H9.1413L35.2656 30.7958ZM46.7856 27.486L40.1013 34.1522C39.563 34.6894 38.9237 35.1155 38.2202 35.4062C37.5166 35.697 36.7625 35.8466 36.0009 35.8466C35.2393 35.8466 34.4852 35.697 33.7816 35.4062C33.0781 35.1155 32.4388 34.6894 31.9005 34.1522L25.2153 27.486L10.4076 42.2561H61.5933L46.7856 27.486Z" fill="#00FF66"/>
</g>
<defs>
<clipPath id="clip0_12_1640">
<rect width="72" height="47" fill="white" transform="matrix(-1 0 0 1 72 0)"/>
</clipPath>
</defs>
</svg>
