<svg width="31" height="35" viewBox="0 0 31 35" fill="none" xmlns="http://www.w3.org/2000/svg">
<g opacity="0.3">
<path d="M16.4982 31.4387C21.4718 26.264 26.4453 21.628 26.4453 15.9108C26.4453 10.1935 21.9894 5.56125 16.4982 5.56125C11.0069 5.56125 6.55469 10.1972 6.55469 15.9108C6.55469 21.6243 11.5246 26.264 16.4982 31.4387Z" stroke="black" stroke-width="3" stroke-linecap="round" stroke-linejoin="round"/>
<path d="M16.4981 19.9368C17.3409 19.9346 18.1641 19.6797 18.8638 19.2043C19.5635 18.7289 20.1082 18.0543 20.4292 17.2658C20.7502 16.4773 20.8331 15.6103 20.6673 14.7741C20.5015 13.938 20.0946 13.1703 19.4979 12.5681C18.9012 11.9659 18.1415 11.5561 17.3147 11.3906C16.488 11.225 15.6313 11.3111 14.8528 11.638C14.0744 11.9648 13.4092 12.5178 12.9412 13.227C12.4732 13.9362 12.2234 14.7699 12.2234 15.6226C12.2234 16.1901 12.334 16.752 12.549 17.2762C12.764 17.8003 13.079 18.2764 13.4761 18.6772C13.8732 19.0779 14.3445 19.3955 14.8631 19.6116C15.3816 19.8278 15.9372 19.9383 16.4981 19.9368Z" stroke="black" stroke-width="3" stroke-linecap="round" stroke-linejoin="round"/>
</g>
</svg>
