<svg width="52" height="65" viewBox="0 0 52 65" fill="none" xmlns="http://www.w3.org/2000/svg">
<g clip-path="url(#clip0_12_1642)">
<path d="M25.9956 62.8087C37.8922 50.687 49.7888 39.8274 49.7888 26.4347C49.7888 13.042 39.1305 2.19116 25.9956 2.19116C12.8607 2.19116 2.2113 13.0508 2.2113 26.4347C2.2113 39.8186 14.099 50.687 25.9956 62.8087Z" stroke="#00FF66" stroke-width="5" stroke-linecap="round" stroke-linejoin="round"/>
<path d="M25.9956 35.8657C28.0115 35.8605 29.9807 35.2634 31.6543 34.1498C33.3279 33.0362 34.6309 31.4561 35.3987 29.609C36.1665 27.762 36.3647 25.7309 35.9682 23.7723C35.5717 21.8136 34.5983 20.0154 33.171 18.6047C31.7437 17.194 29.9265 16.2341 27.9489 15.8463C25.9714 15.4585 23.9222 15.6602 22.0603 16.4258C20.1983 17.1915 18.6071 18.4868 17.4877 20.1481C16.3682 21.8094 15.7708 23.7622 15.7708 25.7599C15.7707 27.0892 16.0354 28.4055 16.5496 29.6333C17.0638 30.8611 17.8173 31.9764 18.7672 32.9151C19.717 33.8539 20.8444 34.5977 22.0847 35.104C23.3251 35.6103 24.6541 35.8692 25.9956 35.8657Z" stroke="#00FF66" stroke-width="5" stroke-linecap="round" stroke-linejoin="round"/>
</g>
<defs>
<clipPath id="clip0_12_1642">
<rect width="52" height="65" fill="white"/>
</clipPath>
</defs>
</svg>
