<svg width="39" height="25" viewBox="0 0 39 25" fill="none" xmlns="http://www.w3.org/2000/svg">
<g opacity="0.6" clip-path="url(#clip0_12_1322)">
<path d="M3.86719 0H35.1319C36.1576 0.000972537 37.1411 0.40047 37.8663 1.11079C38.5915 1.8211 38.9993 2.78419 39 3.7886V21.2123C38.9988 22.2165 38.5908 23.1792 37.8657 23.8893C37.1405 24.5993 36.1574 24.9988 35.1319 25H3.86813C2.84262 24.9988 1.85946 24.5993 1.13432 23.8893C0.409168 23.1792 0.00123978 22.2165 0 21.2123V3.7886C0.000495911 2.78427 0.408031 1.82119 1.13311 1.11084C1.85818 0.4005 2.84153 0.000972837 3.86719 0ZM2.57812 3.7886V21.2123C2.58092 21.4042 2.6294 21.5928 2.71969 21.7631L11.835 12.8374L2.58094 3.77575C2.58094 3.7785 2.57812 3.78218 2.57812 3.7886ZM36.4219 21.2123V3.7886C36.4219 3.78309 36.4219 3.77942 36.4219 3.77483L27.1678 12.8364L36.2812 21.7613C36.3705 21.5913 36.4186 21.4034 36.4219 21.2123ZM19.1016 16.3809C19.2087 16.4812 19.3513 16.5373 19.4995 16.5373C19.6478 16.5373 19.7904 16.4812 19.8975 16.3809L34.0472 2.52451H4.95187L19.1016 16.3809ZM25.3416 14.621L21.7209 18.1673C21.1318 18.7439 20.333 19.0678 19.5 19.0678C18.667 19.0678 17.8682 18.7439 17.2791 18.1673L13.6575 14.621L5.63719 22.4755H33.3628L25.3416 14.621Z" fill="#474747"/>
</g>
<defs>
<clipPath id="clip0_12_1322">
<rect width="39" height="25" fill="white" transform="matrix(-1 0 0 1 39 0)"/>
</clipPath>
</defs>
</svg>
