<svg width="83" height="73" viewBox="0 0 83 73" fill="none" xmlns="http://www.w3.org/2000/svg">
<path d="M22.7787 30.1773C22.7787 30.1773 41.7217 22.4368 51.2259 18.4928C54.8692 16.9148 67.2249 11.8675 67.2249 11.8675C67.2249 11.8675 72.9281 9.65913 72.4498 15.0236C72.291 17.232 71.024 24.9615 69.756 33.3243C67.8559 45.1574 65.7962 58.0947 65.7962 58.0947C65.7962 58.0947 65.4797 61.7236 62.7818 62.355C60.084 62.9864 55.6529 60.1466 54.8612 59.5142C54.2282 59.0414 42.9807 51.9413 38.8631 48.4721C37.7579 47.5255 36.4868 45.6322 39.0209 43.4228C44.724 38.217 51.5354 31.7483 55.6529 27.6457C57.554 25.7525 59.455 21.3346 51.5334 26.6991C40.2859 34.4285 29.1982 41.6872 29.1982 41.6872C29.1982 41.6872 26.6631 43.2652 21.9116 41.8448C17.16 40.4244 11.6146 38.5322 11.6146 38.5322C11.6146 38.5322 7.82358 36.1621 14.3175 33.6385L22.7787 30.1773Z" stroke="#00FF67" stroke-width="5" stroke-miterlimit="16.67"/>
</svg>
