<svg width="41" height="38" viewBox="0 0 41 38" fill="none" xmlns="http://www.w3.org/2000/svg">
<g opacity="0.3">
<path d="M6.34454 18.3561C6.34454 18.3561 20.1998 12.7637 24.9965 10.7934C26.8362 10.0057 33.0816 7.48478 33.0816 7.48478C33.0816 7.48478 35.9632 6.3819 35.7229 9.06033C35.6422 10.1632 35.0021 14.0242 34.3619 18.1985C33.4008 24.1077 32.3608 30.5674 32.3608 30.5674C32.3608 30.5674 32.2012 32.3784 30.8402 32.6935C29.4793 33.0087 27.2379 31.5907 26.8362 31.2755C26.5171 31.0401 20.8329 27.4942 18.7529 25.7611C18.1916 25.2885 17.5515 24.3431 18.8318 23.2403C21.7133 20.6432 25.1561 17.4107 27.2379 15.3625C28.1972 14.4172 29.1583 12.2114 25.1561 14.8899C19.4737 18.7508 13.8702 22.3746 13.8702 22.3746C13.8702 22.3746 12.5882 23.1623 10.1872 22.4525C7.78619 21.7426 5.02566 21.0051 5.02566 21.0051C5.02566 21.0051 1.34263 20.2762 4.62404 19.0157L6.34454 18.3561Z" stroke="black" stroke-width="3" stroke-miterlimit="16.67"/>
</g>
</svg>
